# xmcd
#
# Track frame offsets: 
#        150
#        5560
#        20880
#        38848
#        55418
#        81028
#        84355
#        102718
#        115368
#        132550
#        150848
#
# Disc length: 2222 seconds
#
# Revision: 2
# Processed by: cddbd v1.5.2PL0 Copyright (c) Steve Scherf et al.
# Submitted via: ExactAudioCopyFreeDBPlugin 1.0
#
DISCID=8b08ac0b
DTITLE=Xscape - Hummin' Comin' at 'Cha
DYEAR=1993
DGENRE=R&B
TTITLE0=Hummin' Comin' at 'Cha (Intro)
TTITLE1=Just Kickin' It
TTITLE2=Pumpin'
TTITLE3=Let Me Know
TTITLE4=Understanding
TTITLE5=W.S.S. Deez Nuts
TTITLE6=With You
TTITLE7=Is My Living in Vain
TTITLE8=Love on My Mind
TTITLE9=Tonight
TTITLE10=Just Kickin' It (Remix)
EXTD=
EXTT0=
EXTT1=
EXTT2=
EXTT3=
EXTT4=
EXTT5=
EXTT6=
EXTT7=
EXTT8=
EXTT9=
EXTT10=
PLAYORDER=
